<svg width="24" height="24" viewBox="0 0 24 24" fill="none" xmlns="http://www.w3.org/2000/svg">
<circle cx="11.7333" cy="12.0002" r="10.6667" fill="#F2F0F2"/>
<mask id="mask0_0_110" style="mask-type:alpha" maskUnits="userSpaceOnUse" x="1" y="1" width="22" height="22">
<circle cx="11.7333" cy="12.0002" r="10.6667" fill="#FCFCFC"/>
</mask>
<g mask="url(#mask0_0_110)">
<rect x="4.53345" y="20.2666" width="14.6667" height="2.66667" fill="#D90026"/>
<rect x="4.53345" y="20.2666" width="14.6667" height="2.66667" fill="#D90026"/>
<rect x="1.33325" y="14.9331" width="21.0667" height="2.66667" fill="#D90026"/>
<rect x="1.33325" y="14.9331" width="21.0667" height="2.66667" fill="#D90026"/>
<rect x="1.33325" y="9.3335" width="21.0667" height="2.66667" fill="#D90026"/>
<rect x="1.33325" y="9.3335" width="21.0667" height="2.66667" fill="#D90026"/>
<rect x="1.33325" y="4" width="21.0667" height="2.66667" fill="#D90026"/>
<rect x="1.33325" y="4" width="21.0667" height="2.66667" fill="#D90026"/>
<rect x="1.06665" y="1.3335" width="10.9333" height="10.6667" fill="#0052B5"/>
<path d="M9.86672 10.2665L9.06672 10.6665L9.33338 9.86654L8.80005 9.3332H9.60005L9.86672 8.5332L10.2667 9.3332H10.9334L10.4 9.86654L10.6667 10.6665L9.86672 10.2665Z" fill="#EFEFEF"/>
<path d="M6.13332 10.2665L5.33332 10.6665L5.59998 9.86654L5.06665 9.3332H5.86665L6.13332 8.5332L6.53332 9.3332H7.19998L6.66665 9.86654L6.93332 10.6665L6.13332 10.2665Z" fill="#EFEFEF"/>
<path d="M2.39992 10.2665L1.59992 10.6665L1.86659 9.86654L1.33325 9.3332H2.13325L2.39992 8.5332L2.79992 9.3332H3.46659L2.93325 9.86654L3.19992 10.6665L2.39992 10.2665Z" fill="#EFEFEF"/>
<path d="M9.86672 7.33343L9.06672 7.73343L9.33338 6.93343L8.80005 6.4001H9.60005L9.86672 5.6001L10.2667 6.4001H10.9334L10.4 6.93343L10.6667 7.73343L9.86672 7.33343Z" fill="#EFEFEF"/>
<path d="M9.86672 4.39984L9.06672 4.79984L9.33338 3.99984L8.80005 3.4665H9.60005L9.86672 2.6665L10.2667 3.4665H10.9334L10.4 3.99984L10.6667 4.79984L9.86672 4.39984Z" fill="#EFEFEF"/>
<path d="M9.86672 1.46673L9.06672 1.86673L9.33338 1.06673L8.80005 0.533399H9.60005L9.86672 -0.266602L10.2667 0.533399H10.9334L10.4 1.06673L10.6667 1.86673L9.86672 1.46673Z" fill="#EFEFEF"/>
<path d="M6.13332 4.39984L5.33332 4.79984L5.59998 3.99984L5.06665 3.4665H5.86665L6.13332 2.6665L6.53332 3.4665H7.19998L6.66665 3.99984L6.93332 4.79984L6.13332 4.39984Z" fill="#EFEFEF"/>
<path d="M6.13332 7.33343L5.33332 7.73343L5.59998 6.93343L5.06665 6.4001H5.86665L6.13332 5.6001L6.53332 6.4001H7.19998L6.66665 6.93343L6.93332 7.73343L6.13332 7.33343Z" fill="#EFEFEF"/>
<path d="M2.39992 7.33343L1.59992 7.73343L1.86659 6.93343L1.33325 6.4001H2.13325L2.39992 5.6001L2.79992 6.4001H3.46659L2.93325 6.93343L3.19992 7.73343L2.39992 7.33343Z" fill="#EFEFEF"/>
</g>
</svg>
