<svg width="19" height="14" viewBox="0 0 19 14" fill="none" xmlns="http://www.w3.org/2000/svg">
<path d="M18.9623 6.75153C18.2174 4.82465 16.9242 3.15828 15.2425 1.95838C13.5608 0.758474 11.5644 0.0776318 9.50001 0C7.43561 0.0776318 5.4392 0.758474 3.75754 1.95838C2.07587 3.15828 0.782655 4.82465 0.0377317 6.75153C-0.0125772 6.89068 -0.0125772 7.04306 0.0377317 7.18221C0.782655 9.10909 2.07587 10.7755 3.75754 11.9754C5.4392 13.1753 7.43561 13.8561 9.50001 13.9337C11.5644 13.8561 13.5608 13.1753 15.2425 11.9754C16.9242 10.7755 18.2174 9.10909 18.9623 7.18221C19.0126 7.04306 19.0126 6.89068 18.9623 6.75153ZM9.50001 12.667C6.14324 12.667 2.59647 10.178 1.31077 6.96687C2.59647 3.75578 6.14324 1.2667 9.50001 1.2667C12.8568 1.2667 16.4035 3.75578 17.6893 6.96687C16.4035 10.178 12.8568 12.667 9.50001 12.667Z" fill="black"/>
</svg>
