<svg width="26" height="28" viewBox="0 0 26 28" fill="none" xmlns="http://www.w3.org/2000/svg">
<mask id="mask0_586_3961" style="mask-type:luminance" maskUnits="userSpaceOnUse" x="-11" y="-12" width="49" height="49">
<path d="M37.4026 -11.8212H-10.6746V36.256H37.4026V-11.8212Z" fill="white"/>
</mask>
<g mask="url(#mask0_586_3961)">
<mask id="mask1_586_3961" style="mask-type:luminance" maskUnits="userSpaceOnUse" x="-38" y="-32" width="93" height="68">
<path d="M-37.2969 -31.8798H54.8074V35.0861H-37.2969V-31.8798Z" fill="white"/>
</mask>
<g mask="url(#mask1_586_3961)">
<g opacity="0.99">
<path d="M19.0759 12.1205C18.5273 13.0632 20.2374 14.2015 19.8365 15.3566C19.4781 16.3859 18.3107 18.1933 19.0218 18.2779C19.8052 18.3711 20.6854 17.9901 22.0567 15.7108C22.5648 14.8507 21.4516 11.2066 21.4516 11.2066C21.4516 11.2066 19.6245 11.1777 19.0759 12.1205Z" fill="#999999"/>
</g>
<path d="M8.20474 15.205C7.63835 15.6366 4.26654 16.8166 4.63231 17.602C5.01674 18.3774 5.58774 19.4373 5.14982 21.0044C4.82372 22.1765 3.2466 22.6241 2.39108 23.001C0.852844 23.6832 -0.802321 24.7228 0.429923 26.1458C0.822768 26.5965 1.88616 25.4692 2.98099 25.1399C5.8469 24.2781 8.02222 22.2577 8.26595 20.9168C9.18048 15.9324 7.86236 16.228 7.86236 16.228C7.86236 16.228 8.77113 14.7734 8.20474 15.205Z" fill="#999999"/>
<path d="M9.13382 13.5165C7.18122 14.4965 5.78036 14.3239 4.5909 15.4713C4.11199 15.9332 3.80585 18.0021 4.36826 18.7765C5.6532 20.5579 6.06235 20.5976 6.06235 20.5976C6.03376 21.0561 5.70412 21.8976 5.3826 22.2971C4.40768 23.4515 0.899914 23.466 0.71576 25.6025C0.580896 27.1481 1.12159 27.6508 2.14379 26.5278C3.02487 25.4928 5.70537 25.182 6.7621 24.5122C7.49587 24.0506 8.39547 23.4861 8.68723 23.0374C9.48473 21.8415 10.8138 20.594 10.2719 19.1394C10.2355 19.0405 11.5077 19.4484 14.1302 18.1463C15.2715 17.5796 19.6807 14.4138 20.7424 13.6558C21.8041 12.8979 22.3801 10.1607 22.3801 10.1607L19.9711 7.77024C19.9711 7.77024 17.9237 8.39327 15.905 9.86499C12.9101 12.0514 10.3944 12.8833 9.13382 13.5165Z" fill="#AEB1B0"/>
<path d="M17.9737 10.9939C17.5135 11.9779 19.3305 13.1823 19.3305 13.1823C19.3305 13.1823 21.0754 14.1908 20.9328 15.5666C20.7985 17.024 20.5749 17.5122 20.9353 18.3062C21.3683 19.0183 22.5574 17.6591 23.0702 16.6438C23.7078 15.4139 23.0856 14.8277 22.6443 13.492C22.3656 12.6392 21.6066 11.9347 21.1023 10.7147C20.5473 9.37181 18.9332 9.93368 18.9332 9.93368C18.9332 9.93368 18.4339 10.0099 17.9737 10.9939Z" fill="#AEB1B0"/>
<path d="M2.03911 15.0126C2.03911 15.0126 1.69674 16.0404 2.0102 16.5918C2.25228 17.0177 2.58923 17.4808 3.36423 17.549C4.13923 17.6171 4.2192 17.3574 4.2192 17.3574L4.23617 16.3317C4.23617 16.3317 2.80034 14.4933 2.36127 14.5411C2.09262 14.5704 2.03911 15.0126 2.03911 15.0126Z" fill="#AEB1B0"/>
<path d="M4.311 16.3607C4.311 16.3607 3.27966 15.1829 2.70411 14.7259C2.12857 14.2689 2.27721 15.1625 2.27667 15.1188C2.27617 15.0819 2.65331 16.5342 3.47817 16.9019C4.30303 17.2697 4.21121 17.014 4.21121 17.014L4.311 16.3607Z" fill="#EAEAEA"/>
<path d="M20.7655 4.48513C20.7655 4.48513 19.3779 2.15356 18.4772 1.32368C17.5765 0.493805 14.1538 -0.228552 13.4683 0.0676709C12.7827 0.363894 14.5529 1.98245 16.1322 2.98916C17.7115 3.99586 20.2812 5.33566 20.2812 5.33566L20.7655 4.48513Z" fill="#AEB1B0"/>
<path d="M21.1556 4.8192L20.3747 5.43579C20.3747 5.43579 18.9782 4.68123 17.6609 3.92783C18.1552 3.93799 18.3082 3.62431 17.637 2.65017C16.6825 1.26518 15.3528 0.473814 14.312 0.0361909C15.5964 0.133478 17.7533 0.737848 18.4719 1.34592C19.4923 2.20936 21.5249 4.92432 21.1556 4.8192Z" fill="#999999"/>
<path d="M20.1361 6.24096C20.1361 6.24096 16.1929 6.59535 15.4192 6.35539C14.6456 6.11543 11.1166 4.97001 10.7141 3.8614C10.3117 2.7528 14.5105 2.61337 15.0105 2.75147C15.5104 2.88958 19.5143 4.69116 20.1092 4.9605C20.7042 5.22983 20.1361 6.24096 20.1361 6.24096Z" fill="#AEB1B0"/>
<path d="M19.7157 5.2455C19.7157 5.2455 16.2411 3.76074 15.8837 3.81948C15.5262 3.87823 13.5196 3.73078 13.2028 4.26009C12.8859 4.78941 15.524 5.87971 15.9276 5.98757C16.3312 6.09544 19.3627 6.00103 19.3627 6.00103L19.7157 5.2455Z" fill="#E79F9E"/>
<path d="M19.5716 6.19783C19.5716 6.19783 18.5886 8.17161 19.854 9.80538C21.1193 11.4392 23.8594 11.3872 24.1606 11.4855C24.4618 11.5838 25.7402 10.4841 25.9848 9.8679C26.2293 9.25175 23.4463 5.82691 23.2167 5.51313C22.9872 5.19928 21.5512 4.49917 20.7626 4.80464C19.974 5.1101 19.5716 6.19783 19.5716 6.19783Z" fill="#CACACA"/>
<path d="M21.2137 8.84959C21.8504 9.27368 22.6013 9.26504 22.891 8.8302C23.1806 8.39536 22.8992 7.69905 22.2624 7.27496C21.6256 6.85079 20.8747 6.85951 20.5851 7.29435C20.2954 7.72912 20.5769 8.4255 21.2137 8.84959Z" fill="white"/>
<path d="M21.226 7.61186C21.226 7.61186 20.9788 8.60619 21.7182 8.71082C22.4577 8.81545 22.556 8.64526 22.556 8.64526C22.556 8.64526 22.7238 8.06338 22.1206 7.62309C21.5174 7.1828 21.226 7.61186 21.226 7.61186Z" fill="black"/>
<path d="M22.1207 7.62347C21.6398 7.21236 20.5674 7.50128 20.5674 7.50128L21.4984 7.67217C21.4984 7.67217 21.9196 7.71534 22.2133 8.06057C22.5069 8.40581 22.5561 8.64571 22.5561 8.64571C22.5561 8.64571 22.8173 8.21894 22.1207 7.62347Z" fill="black"/>
<path d="M21.8407 8.23502C21.8241 8.32293 21.775 8.38747 21.731 8.37913C21.687 8.37079 21.6648 8.29282 21.6814 8.20491C21.698 8.117 21.7473 8.05245 21.7912 8.06079C21.8352 8.06913 21.8573 8.14711 21.8407 8.23502Z" fill="white"/>
<path d="M25.0054 9.18488C25.0054 9.18488 25.0244 9.42714 25.5468 9.87375L25.5849 10.3602C25.5974 10.5198 25.8587 10.1947 25.9419 9.97486C26.0251 9.75508 25.9652 9.47896 25.9049 9.50221C25.8446 9.52545 25.7702 9.61253 25.254 9.24667C24.7379 8.88082 25.0054 9.18488 25.0054 9.18488Z" fill="black"/>
</g>
</g>
</svg>
