<svg width="35" height="35" viewBox="0 0 35 35" fill="none" xmlns="http://www.w3.org/2000/svg">
<path fill-rule="evenodd" clip-rule="evenodd" d="M4.37498 17.4999C4.37498 23.9895 9.11457 29.3853 15.3125 30.479L15.3855 30.4206C15.3612 30.4159 15.3368 30.4111 15.3125 30.4063V21.1458H12.0313V17.5H15.3125V14.5833C15.3125 11.3021 17.4271 9.47917 20.4167 9.47917C21.3646 9.47917 22.3854 9.62501 23.3333 9.77084V13.125H21.6563C20.0521 13.125 19.6875 13.9271 19.6875 14.9479V17.5H23.1875L22.6042 21.1458H19.6875V30.4063C19.6632 30.4111 19.6388 30.4159 19.6145 30.4206L19.6875 30.479C25.8854 29.3853 30.625 23.9895 30.625 17.4999C30.625 10.2811 24.7187 4.37486 17.5 4.37486C10.2812 4.37486 4.37498 10.2811 4.37498 17.4999Z" fill="#352474"/>
</svg>
