<svg width="19" height="19" viewBox="0 0 19 19" fill="none" xmlns="http://www.w3.org/2000/svg">
<path d="M0.152017 9.02729C0.191943 9.05717 0.237377 9.07891 0.285723 9.09127C0.334069 9.10363 0.384381 9.10637 0.433787 9.09933C0.483193 9.09228 0.530725 9.0756 0.573669 9.05022C0.616613 9.02485 0.654128 8.99128 0.684073 8.95144C1.17967 8.29202 1.8223 7.75681 2.56109 7.38818C3.29988 7.01955 4.11453 6.82764 4.94052 6.82764C5.76651 6.82764 6.58115 7.01955 7.31994 7.38818C8.05873 7.75681 8.70136 8.29202 9.19696 8.95144C9.23154 8.9994 9.27706 9.03847 9.32976 9.06542C9.38246 9.09237 9.44082 9.10642 9.50004 9.10642C9.55925 9.10642 9.61762 9.09237 9.67032 9.06542C9.72302 9.03847 9.76853 8.9994 9.80312 8.95144C10.2987 8.29202 10.9414 7.75681 11.6801 7.38818C12.4189 7.01955 13.2336 6.82764 14.0596 6.82764C14.8856 6.82764 15.7002 7.01955 16.439 7.38818C17.1778 7.75681 17.8204 8.29202 18.316 8.95144C18.3459 8.99128 18.3835 9.02485 18.4264 9.05022C18.4694 9.0756 18.5169 9.09228 18.5663 9.09933C18.6157 9.10637 18.666 9.10363 18.7144 9.09127C18.7627 9.07891 18.8081 9.05717 18.8481 9.02729C18.888 8.99741 18.9216 8.95997 18.947 8.91711C18.9725 8.87426 18.9892 8.82683 18.9963 8.77752C19.0033 8.72822 19.0006 8.67801 18.9882 8.62977C18.9758 8.58152 18.954 8.53618 18.9241 8.49634C18.1533 7.46343 17.0711 6.70416 15.8362 6.32988C16.474 5.94301 16.9674 5.35861 17.2413 4.6658C17.5152 3.97299 17.5545 3.2098 17.3532 2.49263C17.1519 1.77546 16.721 1.14368 16.1264 0.693638C15.5317 0.243597 14.8059 0 14.0596 0C13.3132 0 12.5874 0.243597 11.9927 0.693638C11.3981 1.14368 10.9673 1.77546 10.766 2.49263C10.5647 3.2098 10.604 3.97299 10.8778 4.6658C11.1517 5.35861 11.6451 5.94301 12.2829 6.32988C11.2042 6.65842 10.2397 7.28258 9.49909 8.13131C8.75864 7.28239 7.79405 6.65818 6.7153 6.32988C7.35303 5.94301 7.84647 5.35861 8.12034 4.6658C8.39422 3.97299 8.43351 3.2098 8.23221 2.49263C8.03091 1.77546 7.60008 1.14368 7.00543 0.693638C6.41078 0.243597 5.68494 0 4.93862 0C4.19229 0 3.46645 0.243597 2.8718 0.693638C2.27715 1.14368 1.84632 1.77546 1.64502 2.49263C1.44372 3.2098 1.48301 3.97299 1.75689 4.6658C2.03076 5.35861 2.5242 5.94301 3.16193 6.32988C1.92797 6.70489 0.846609 7.46405 0.0760095 8.49634C0.0155338 8.57681 -0.0104331 8.67795 0.00382114 8.77752C0.0180754 8.87709 0.0713833 8.96694 0.152017 9.02729ZM11.4012 3.4144C11.4012 2.88934 11.5572 2.37607 11.8495 1.9395C12.1418 1.50293 12.5573 1.16266 13.0434 0.961732C13.5295 0.7608 14.0644 0.708227 14.5805 0.810661C15.0965 0.913095 15.5705 1.16594 15.9426 1.53721C16.3146 1.90848 16.568 2.38151 16.6706 2.89648C16.7733 3.41145 16.7206 3.94523 16.5192 4.43032C16.3179 4.91542 15.9769 5.33003 15.5394 5.62174C15.102 5.91344 14.5876 6.06914 14.0615 6.06914C13.3559 6.06914 12.6793 5.78945 12.1804 5.29159C11.6815 4.79372 11.4012 4.11848 11.4012 3.4144ZM2.28024 3.4144C2.28024 2.88934 2.43626 2.37607 2.72858 1.9395C3.02089 1.50293 3.43637 1.16266 3.92247 0.961732C4.40857 0.7608 4.94347 0.708227 5.45951 0.810661C5.97555 0.913095 6.44957 1.16594 6.82161 1.53721C7.19366 1.90848 7.44703 2.38151 7.54968 2.89648C7.65232 3.41145 7.59964 3.94523 7.39829 4.43032C7.19694 4.91542 6.85597 5.33003 6.41849 5.62174C5.98101 5.91344 5.46667 6.06914 4.94052 6.06914C4.23497 6.06914 3.55831 5.78945 3.05942 5.29159C2.56052 4.79372 2.28024 4.11848 2.28024 3.4144ZM15.8381 16.1904C16.4759 15.8035 16.9693 15.2191 17.2432 14.5263C17.5171 13.8335 17.5564 13.0703 17.3551 12.3531C17.1538 11.6359 16.7229 11.0042 16.1283 10.5541C15.5336 10.1041 14.8078 9.86049 14.0615 9.86049C13.3151 9.86049 12.5893 10.1041 11.9946 10.5541C11.4 11.0042 10.9692 11.6359 10.7679 12.3531C10.5666 13.0703 10.6059 13.8335 10.8797 14.5263C11.1536 15.2191 11.647 15.8035 12.2848 16.1904C11.2067 16.5176 10.2422 17.1401 9.50099 17.9871C8.75993 17.1399 7.7954 16.5173 6.7172 16.1904C7.35493 15.8035 7.84837 15.2191 8.12224 14.5263C8.39612 13.8335 8.43541 13.0703 8.23411 12.3531C8.03281 11.6359 7.60198 11.0042 7.00733 10.5541C6.41267 10.1041 5.68684 9.86049 4.94052 9.86049C4.19419 9.86049 3.46835 10.1041 2.8737 10.5541C2.27905 11.0042 1.84822 11.6359 1.64692 12.3531C1.44562 13.0703 1.48491 13.8335 1.75879 14.5263C2.03266 15.2191 2.5261 15.8035 3.16383 16.1904C1.92917 16.565 0.847103 17.3242 0.0760095 18.3568C0.0155338 18.4373 -0.0104331 18.5384 0.00382114 18.638C0.0180754 18.7376 0.0713833 18.8274 0.152017 18.8878C0.232652 18.9481 0.334007 18.974 0.433787 18.9598C0.533566 18.9456 0.623597 18.8924 0.684073 18.8119C1.17967 18.1525 1.8223 17.6173 2.56109 17.2487C3.29988 16.88 4.11453 16.6881 4.94052 16.6881C5.76651 16.6881 6.58115 16.88 7.31994 17.2487C8.05873 17.6173 8.70136 18.1525 9.19696 18.8119C9.23154 18.8599 9.27706 18.899 9.32976 18.9259C9.38246 18.9529 9.44082 18.9669 9.50004 18.9669C9.55925 18.9669 9.61762 18.9529 9.67032 18.9259C9.72302 18.899 9.76853 18.8599 9.80312 18.8119C10.2987 18.1525 10.9414 17.6173 11.6801 17.2487C12.4189 16.88 13.2336 16.6881 14.0596 16.6881C14.8856 16.6881 15.7002 16.88 16.439 17.2487C17.1778 17.6173 17.8204 18.1525 18.316 18.8119C18.3765 18.8924 18.4665 18.9456 18.5663 18.9598C18.6661 18.974 18.7674 18.9481 18.8481 18.8878C18.9287 18.8274 18.982 18.7376 18.9963 18.638C19.0105 18.5384 18.9845 18.4373 18.9241 18.3568C18.1538 17.3242 17.0723 16.565 15.8381 16.1904ZM2.28024 13.2749C2.28024 12.7498 2.43626 12.2366 2.72858 11.8C3.02089 11.3634 3.43637 11.0231 3.92247 10.8222C4.40857 10.6213 4.94347 10.5687 5.45951 10.6711C5.97555 10.7736 6.44957 11.0264 6.82161 11.3977C7.19366 11.769 7.44703 12.242 7.54968 12.757C7.65232 13.2719 7.59964 13.8057 7.39829 14.2908C7.19694 14.7759 6.85597 15.1905 6.41849 15.4822C5.98101 15.7739 5.46667 15.9296 4.94052 15.9296C4.23497 15.9296 3.55831 15.6499 3.05942 15.1521C2.56052 14.6542 2.28024 13.979 2.28024 13.2749ZM11.4012 13.2749C11.4012 12.7498 11.5572 12.2366 11.8495 11.8C12.1418 11.3634 12.5573 11.0231 13.0434 10.8222C13.5295 10.6213 14.0644 10.5687 14.5805 10.6711C15.0965 10.7736 15.5705 11.0264 15.9426 11.3977C16.3146 11.769 16.568 12.242 16.6706 12.757C16.7733 13.2719 16.7206 13.8057 16.5192 14.2908C16.3179 14.7759 15.9769 15.1905 15.5394 15.4822C15.102 15.7739 14.5876 15.9296 14.0615 15.9296C13.3559 15.9296 12.6793 15.6499 12.1804 15.1521C11.6815 14.6542 11.4012 13.979 11.4012 13.2749Z" fill="white"/>
</svg>
