<svg width="35" height="35" viewBox="0 0 35 35" fill="none" xmlns="http://www.w3.org/2000/svg">
<path fill-rule="evenodd" clip-rule="evenodd" d="M6.86385 5.104C5.89198 5.104 5.10413 5.89186 5.10413 6.86372V28.1359C5.10413 29.1078 5.89198 29.8956 6.86385 29.8956H28.1361C29.108 29.8956 29.8958 29.1078 29.8958 28.1359V6.86372C29.8958 5.89186 29.108 5.104 28.1361 5.104H6.86385ZM10.6687 12.8031C11.8565 12.8031 12.8194 11.8402 12.8194 10.6524C12.8194 9.46461 11.8565 8.50173 10.6687 8.50173C9.48094 8.50173 8.51805 9.46461 8.51805 10.6524C8.51805 11.8402 9.48094 12.8031 10.6687 12.8031ZM14.789 14.3925H18.3534V16.0253C18.3534 16.0253 19.3206 14.0909 21.9524 14.0909C24.3 14.0909 26.2447 15.2473 26.2447 18.7724V26.2057H22.551V19.6731C22.551 17.5937 21.4408 17.365 20.5949 17.365C18.8392 17.365 18.5386 18.8793 18.5386 19.9444V26.2057H14.789V14.3925ZM12.5435 14.3925H8.79392V26.2058H12.5435V14.3925Z" fill="#352474"/>
</svg>
