<svg width="1036" height="41" viewBox="0 0 1036 41" fill="none" xmlns="http://www.w3.org/2000/svg">
<g clip-path="url(#clip0_1805_3820)">
<path fill-rule="evenodd" clip-rule="evenodd" d="M90.12 15.867C87.19 15.867 85.53 18.445 85.53 18.445H85.467L85.717 16.118H81.883C81.695 17.69 81.349 20.078 81.003 21.871L77.985 37.751H82.325L83.518 31.341H83.612C83.612 31.341 84.502 31.911 86.159 31.911C91.249 31.911 94.579 26.691 94.579 21.411C94.579 18.486 93.289 15.877 90.109 15.877L90.12 15.867ZM73.144 15.867C67.926 15.867 64.468 20.582 64.468 25.832C64.468 29.196 66.542 31.899 70.44 31.899C75.565 31.899 79.022 27.309 79.022 21.929C79.022 18.819 77.199 15.859 73.144 15.859V15.867ZM44.254 22.343C43.154 21.746 42.588 21.243 42.588 20.551C42.588 19.671 43.374 19.111 44.6 19.111C46.028 19.111 47.303 19.711 47.303 19.711L48.309 16.631C48.309 16.631 47.379 15.908 44.659 15.908C40.869 15.908 38.239 18.078 38.239 21.128C38.239 22.856 39.464 24.176 41.099 25.118C42.419 25.873 42.891 26.408 42.891 27.194C42.891 28.011 42.231 28.671 41.004 28.671C39.178 28.671 37.451 27.728 37.451 27.728L36.39 30.8C36.39 30.8 37.985 31.87 40.666 31.87C44.566 31.87 47.362 29.953 47.362 26.495C47.362 24.641 45.948 23.32 44.25 22.345L44.254 22.343ZM94.71 31.585H99.048L102.002 16.213H97.632L94.71 31.585ZM113.037 16.181H110.017L110.177 15.461C110.427 13.991 111.307 12.671 112.754 12.671C113.526 12.671 114.137 12.891 114.137 12.891L114.987 9.496C114.987 9.496 114.231 9.119 112.627 9.119C111.087 9.119 109.547 9.559 108.384 10.566C106.907 11.822 106.214 13.646 105.869 15.468L105.739 16.192H103.729L103.099 19.462H105.109L102.819 31.596H107.152L109.447 19.461H112.433L113.029 16.191L113.037 16.181ZM85.97 28.63C84.844 28.63 84.178 28 84.178 28L84.901 23.946C85.411 21.243 86.821 19.451 88.331 19.451C89.651 19.451 90.061 20.681 90.061 21.841C90.061 24.641 88.391 28.631 85.971 28.631L85.97 28.63ZM71.006 28.567C69.529 28.567 68.9 27.31 68.9 25.737C68.9 23.254 70.19 19.199 72.546 19.199C74.086 19.199 74.59 20.519 74.59 21.799C74.59 24.469 73.3 28.559 71.006 28.559V28.567ZM123.473 16.213C123.473 16.213 120.761 23.046 119.543 26.775H119.481C119.401 25.575 118.421 16.213 118.421 16.213H113.861L116.471 30.328C116.531 30.642 116.501 30.83 116.378 31.051C115.875 32.031 115.026 32.971 114.018 33.661C113.203 34.261 112.291 34.641 111.568 34.891L112.763 38.571C113.643 38.381 115.463 37.661 117.003 36.211C118.983 34.361 120.81 31.501 122.693 27.601L128 16.22H123.475L123.473 16.213ZM59.783 15.867C57.865 15.867 56.357 16.779 55.193 18.162L55.131 18.13L56.801 9.423H52.461L48.251 31.585H52.591L54.041 24.009C54.611 21.139 56.086 19.379 57.471 19.379C58.443 19.379 58.821 20.039 58.821 20.981C58.821 21.578 58.757 22.301 58.631 22.901L56.991 31.579H61.331L63.026 22.619C63.216 21.677 63.342 20.546 63.342 19.792C63.342 17.339 62.052 15.862 59.792 15.862L59.783 15.867ZM100.777 9.643C99.394 9.643 98.293 10.743 98.293 12.157C98.293 13.447 99.111 14.327 100.337 14.327H100.399C101.749 14.327 102.909 13.415 102.939 11.812C102.939 10.554 102.089 9.642 100.769 9.642L100.777 9.643ZM16.617 14.757L15.257 18.803C15.257 18.803 14.064 18.167 12.603 18.167C10.461 18.167 10.353 19.511 10.353 19.85C10.353 21.698 15.17 22.406 15.17 26.735C15.17 30.141 13.01 32.335 10.098 32.335C6.602 32.335 4.815 30.159 4.815 30.159L5.751 27.059C5.751 27.059 7.591 28.634 9.141 28.634C10.151 28.634 10.571 27.837 10.571 27.254C10.571 24.844 6.621 24.734 6.621 20.774C6.621 17.44 9.011 14.214 13.845 14.214C15.705 14.214 16.625 14.747 16.625 14.747L16.617 14.757ZM14.462 3.235C14.66 3.235 14.86 3.302 15.052 3.435C13.576 4.128 11.995 5.877 11.327 9.37L8.514 10.24C9.297 7.577 11.154 3.235 14.462 3.235ZM15.83 4.53C16.114 5.24 16.298 6.257 16.298 7.63V7.83L12.738 8.933C13.424 6.289 14.708 5.011 15.831 4.53H15.83ZM19.227 6.924L17.504 7.457V7.087C17.504 5.947 17.347 5.031 17.094 4.304C18.112 4.432 18.791 5.591 19.227 6.924ZM24.31 8.447C24.31 8.447 27.055 8.65 27.184 8.661C27.314 8.681 27.471 8.771 27.496 8.951C27.52 9.131 31.393 35.321 31.393 35.321L20.36 37.7L0 33.886C0 33.886 2.613 13.679 2.712 12.966C2.842 12.026 2.874 11.994 3.872 11.681L7.095 10.681C7.785 7.76 9.985 2 14.59 2C15.19 2 15.887 2.323 16.45 3.066C16.505 3.063 16.56 3.061 16.616 3.061C18.592 3.061 19.716 4.751 20.352 6.581L21.419 6.251C21.569 6.211 21.979 6.141 22.189 6.351L23.7 7.85L24.31 8.454V8.447Z" fill="#B9BEC7"/>
</g>
<path d="M236.347 10.5453C236.347 11.5887 236.513 13.1631 234.062 14.0551C233.303 14.3314 232.791 14.8287 232.791 14.8287C232.791 12.3463 233.167 11.4478 234.178 10.9161C234.955 10.5069 236.347 10.5453 236.347 10.5453ZM227.12 13.3913L224.391 24.0144L222.122 15.3204C221.509 12.7587 220.463 11.4342 218.262 11.4342C216.081 11.4342 215.022 12.7298 214.403 15.3204L212.134 24.0144L209.405 13.3913C208.963 11.2516 206.901 10.3267 205 10.5669L210.225 30.4207C210.225 30.4207 211.949 30.5456 212.812 30.1036C213.945 29.523 214.484 29.0754 215.17 26.3743C215.781 23.9664 217.489 16.8923 217.65 16.3886C218.029 15.1922 218.533 15.2827 218.877 16.3886C219.034 16.8931 220.745 23.9664 221.357 26.3743C222.042 29.0754 222.581 29.523 223.715 30.1036C224.577 30.5456 226.301 30.4207 226.301 30.4207L231.526 10.5669C229.58 10.3211 227.556 11.282 227.12 13.3913ZM236.346 13.8085C236.346 13.8085 236.019 14.3162 235.273 14.735C234.794 15.004 234.335 15.1866 233.841 15.4245C232.635 16.0058 232.791 16.5415 232.791 18.2432V30.4207C232.791 30.4207 234.11 30.5881 234.972 30.146C236.082 29.5775 236.337 29.0289 236.347 26.5601V14.5268L236.346 14.5276V13.8085ZM249.37 20.5415L256 10.6326C256 10.6326 253.202 10.1537 251.816 11.4214C250.757 12.3903 249.871 13.7877 247.499 17.2246C247.461 17.2831 247.001 18.0686 246.457 17.2246C244.123 13.8429 243.206 12.3967 242.14 11.4214C240.754 10.1537 237.956 10.6326 237.956 10.6326L244.586 20.5415L237.975 30.4199C237.975 30.4199 240.889 30.7899 242.274 29.5222C243.189 28.6846 243.675 27.891 246.458 23.8591C247.001 23.0167 247.46 23.7974 247.5 23.8591C249.843 27.2528 250.626 28.5084 251.734 29.5222C253.12 30.7899 255.983 30.4199 255.983 30.4199L249.37 20.5415Z" fill="#B9BEC7"/>
<g clip-path="url(#clip1_1805_3820)">
<path d="M374.331 16.9644C374.331 14.6682 372.098 12.2295 368.234 12.2295C363.895 12.2295 359.129 15.4125 358.4 21.7626C357.656 28.1761 361.647 31.0265 365.669 31.0265C369.691 31.0265 371.797 29.4588 373.951 27.3684C372.098 25.0406 369.707 26.1174 369.248 26.355C368.741 26.6083 368.092 26.9567 366.762 26.9567C365.21 26.9567 363.626 26.2599 363.626 23.362C373.571 22.3802 374.331 19.2606 374.331 16.9644ZM369.406 17.3444C369.343 18.057 369.058 19.2764 364.022 19.9573C365.083 16.1884 367.11 15.9034 368.044 15.9034C368.915 15.9034 369.47 16.5843 369.406 17.3444ZM352.557 17.962C352.557 17.962 350.419 24.6764 350.245 25.2306C350.182 24.6605 348.614 12.6096 348.614 12.6096C344.972 12.6096 343.024 15.2066 341.995 17.9462C341.995 17.9462 339.398 24.6764 339.176 25.2465C339.16 24.7239 338.78 18.0254 338.78 18.0254C338.558 14.6682 335.486 12.6254 333 12.6254L336.009 30.884C339.825 30.8681 341.884 28.2869 342.961 25.5473C342.961 25.5473 345.257 19.6089 345.352 19.3397C345.368 19.5931 346.999 30.884 346.999 30.884C350.831 30.884 352.89 28.4611 353.998 25.8165L359.366 12.6254C355.582 12.6254 353.586 15.2066 352.557 17.962ZM388.393 12.1978C386.034 12.1978 384.229 13.4805 382.708 15.365V15.3491L384.07 4.375C380.935 4.375 378.385 7.09874 377.894 11.1527L375.519 30.7414C377.324 30.7414 379.24 30.2189 380.27 28.8887C381.188 30.0763 382.566 31.0265 384.609 31.0265C389.898 31.0265 393.524 24.8822 393.524 19.118C393.492 13.8606 390.943 12.1978 388.393 12.1978ZM387.902 21.6201C387.348 24.8347 385.559 27.0201 383.833 27.0201C382.091 27.0201 381.346 26.2441 381.346 26.2441C381.679 23.4254 381.885 21.6993 382.518 20.2107C383.152 18.7221 384.656 16.3468 386.224 16.3468C387.76 16.3468 388.457 18.3896 387.902 21.6201ZM406.731 12.6254H403.041L403.057 12.4354C403.311 10.0283 403.881 8.76149 405.765 8.55563C407.048 8.42894 407.618 7.76384 407.76 7.0354C407.871 6.46531 408.22 4.48585 408.22 4.48585C400.808 4.43834 398.481 7.63716 397.879 12.5146L397.863 12.6254H397.784C396.58 12.6254 395.25 13.9873 395.028 15.7134L394.949 16.3468H397.42L395.345 33.481L394.712 36.5532C394.791 36.5532 394.886 36.569 394.965 36.569C398.433 36.4423 400.65 33.7027 401.141 29.728L402.756 16.3468H403.912C405.052 16.3468 406.383 15.2066 406.62 13.3063L406.731 12.6254ZM425.924 12.3087C421.664 12.3087 417.642 15.4442 416.407 20.3691C415.171 25.294 417.04 31.1215 423.311 31.1215C429.566 31.1215 433.177 25.0564 433.177 20.0048C433.177 14.9849 429.772 12.3087 425.924 12.3087ZM427.65 21.4617C427.428 23.6946 426.446 27.0834 423.754 27.0834C421.047 27.0834 421.427 23.1245 421.696 21.24C421.981 19.2289 423.105 16.3626 425.528 16.3626C427.698 16.3626 427.903 18.9438 427.65 21.4617ZM454.222 17.962C454.222 17.962 452.085 24.6764 451.91 25.2306C451.847 24.6605 450.279 12.6096 450.279 12.6096C446.637 12.6096 444.689 15.2066 443.66 17.9462C443.66 17.9462 441.063 24.6764 440.841 25.2465C440.825 24.7239 440.445 18.0254 440.445 18.0254C440.224 14.6682 437.151 12.6254 434.665 12.6254L437.658 30.884C441.475 30.8681 443.533 28.2869 444.61 25.5473C444.61 25.5473 446.906 19.6089 446.985 19.3397C447.001 19.5931 448.632 30.884 448.632 30.884C452.465 30.884 454.523 28.4611 455.632 25.8165L461 12.6254C457.231 12.6254 455.236 15.2066 454.222 17.962ZM410.215 4.48585L407.111 29.5221L406.478 32.6101C406.557 32.6101 406.652 32.6259 406.731 32.6259C410.072 32.5784 412.448 29.6488 412.891 25.9591L414.681 11.5961C415.219 7.20959 412.606 4.48585 410.215 4.48585Z" fill="#B9BEC7"/>
</g>
<g clip-path="url(#clip2_1805_3820)">
<path d="M632.578 16.5641H626.159V17.245C628.166 17.245 628.489 17.6753 628.489 20.2215V24.8119C628.489 27.3579 628.166 27.8245 626.159 27.8245C624.617 27.6092 623.577 26.7842 622.142 25.2065L620.493 23.4134C622.716 23.0186 623.899 21.6205 623.899 20.0421C623.899 18.0699 622.214 16.564 619.058 16.564H612.747V17.2448C614.754 17.2448 615.077 17.6751 615.077 20.2213V24.8116C615.077 27.3578 614.755 27.8243 612.747 27.8243V28.5054H619.883V27.8243C617.875 27.8243 617.552 27.3581 617.552 24.8116V23.5212H618.161L622.142 28.5051H632.578C637.705 28.5051 639.929 25.7799 639.929 22.5162C639.929 19.2532 637.706 16.5641 632.578 16.5641ZM617.552 22.4086V17.6397H619.022C620.636 17.6397 621.354 18.7516 621.354 20.0423C621.354 21.2974 620.636 22.4089 619.022 22.4089H617.552V22.4086ZM632.686 27.3938H632.434C631.144 27.3938 630.964 27.0712 630.964 25.4216V17.6397C630.964 17.6397 632.542 17.6397 632.686 17.6397C636.415 17.6397 637.096 20.365 637.096 22.481C637.096 24.6682 636.415 27.3938 632.686 27.3938ZM592.773 23.7363L595.247 16.4201C595.965 14.3043 595.642 13.6951 593.347 13.6951V12.9777H600.089V13.6951C597.83 13.6951 597.292 14.2329 596.395 16.8508L592.307 29.1152H591.841L588.183 17.8905L584.454 29.1152H583.987L580.007 16.8508C579.146 14.2329 578.573 13.6951 576.492 13.6951V12.9777H584.454V13.6951C582.338 13.6951 581.764 14.197 582.517 16.4201L584.92 23.7363L588.541 12.9776H589.223L592.773 23.7363ZM604.965 28.9713C601.021 28.9713 597.793 26.0667 597.793 22.5162C597.793 19.0017 601.021 16.0971 604.965 16.0971C608.91 16.0971 612.137 19.0017 612.137 22.5162C612.137 26.0669 608.91 28.9713 604.965 28.9713ZM604.965 17.2096C601.666 17.2096 600.518 20.1854 600.518 22.5167C600.518 24.884 601.666 27.8245 604.965 27.8245C608.301 27.8245 609.448 24.884 609.448 22.5167C609.448 20.1854 608.3 17.2096 604.965 17.2096ZM648.786 27.7884V28.5053H640.574V27.7884C642.977 27.7884 643.407 27.1789 643.407 23.5923V17.8548C643.407 14.2681 642.977 13.6948 640.574 13.6948V12.9774H647.997C651.691 12.9774 653.736 14.8782 653.736 17.4245C653.736 19.8992 651.691 21.8354 647.997 21.8354H645.954V23.5918C645.953 27.1787 646.384 27.7884 648.786 27.7884ZM647.997 14.2681H645.953V20.5083H647.997C650.006 20.5083 650.938 19.1098 650.938 17.4245C650.938 15.7031 650.006 14.2681 647.997 14.2681ZM678.371 25.1348L678.192 25.7801C677.869 26.9635 677.475 27.3938 674.928 27.3938H674.426C672.561 27.3938 672.239 26.9633 672.239 24.4176V22.7683C675.036 22.7683 675.251 23.0189 675.251 24.884H675.933V19.5402H675.251C675.251 21.405 675.036 21.6558 672.239 21.6558V17.6397H674.211C676.757 17.6397 677.151 18.0701 677.475 19.2535L677.654 19.9348H678.228L677.977 16.5641H667.434V17.245C669.441 17.245 669.765 17.6753 669.765 20.2215V24.8119C669.765 27.1409 669.49 27.7279 667.907 27.8117C666.402 27.5817 665.369 26.7611 663.956 25.2065L662.306 23.4134C664.53 23.0186 665.713 21.6205 665.713 20.0421C665.713 18.0699 664.028 16.564 660.872 16.564H654.561V17.2448C656.568 17.2448 656.891 17.6751 656.891 20.2213V24.8117C656.891 27.3578 656.569 27.8243 654.561 27.8243V28.5054H661.697V27.8243C659.689 27.8243 659.366 27.3581 659.366 24.8117V23.5212H659.976L663.956 28.5051H678.695L678.91 25.1348H678.371ZM659.366 22.4086V17.6397H660.835C662.449 17.6397 663.167 18.7516 663.167 20.0423C663.167 21.2974 662.45 22.4089 660.835 22.4089H659.366V22.4086ZM685.651 28.9713C684.216 28.9713 682.961 28.2184 682.423 27.7517C682.244 27.9316 681.921 28.4691 681.849 28.9713H681.168V24.0226H681.885C682.172 26.3898 683.821 27.7883 685.937 27.7883C687.085 27.7883 688.017 27.1427 688.017 26.0669C688.017 25.1348 687.193 24.4174 685.722 23.736L683.678 22.7678C682.244 22.0857 681.168 20.9023 681.168 19.3248C681.168 17.6034 682.781 16.1333 685.005 16.1333C686.188 16.1333 687.192 16.564 687.802 17.0659C687.981 16.9221 688.161 16.5276 688.268 16.0971H688.95V20.3291H688.197C687.945 18.6434 687.013 17.245 685.113 17.245C684.109 17.245 683.176 17.8186 683.176 18.7157C683.176 19.648 683.929 20.1497 685.651 20.9387L687.623 21.907C689.344 22.7319 690.025 24.0592 690.025 25.1351C690.026 27.3938 688.053 28.9713 685.651 28.9713ZM696.696 28.9713C695.261 28.9713 694.006 28.2184 693.468 27.7517C693.289 27.9316 692.966 28.4691 692.895 28.9713H692.213V24.0226H692.93C693.217 26.3898 694.866 27.7883 696.982 27.7883C698.13 27.7883 699.062 27.1427 699.062 26.0669C699.062 25.1348 698.238 24.4174 696.767 23.736L694.723 22.7678C693.289 22.0857 692.213 20.9023 692.213 19.3248C692.213 17.6034 693.826 16.1333 696.05 16.1333C697.233 16.1333 698.237 16.564 698.847 17.0659C699.026 16.9221 699.206 16.5276 699.312 16.0971H699.994V20.3291H699.241C698.99 18.6434 698.058 17.245 696.158 17.245C695.154 17.245 694.221 17.8186 694.221 18.7157C694.221 19.648 694.974 20.1497 696.695 20.9387L698.667 21.907C700.389 22.7319 701.07 24.0592 701.07 25.1351C701.07 27.3938 699.098 28.9713 696.696 28.9713ZM540.63 20.4995C540.63 26.7813 544.28 32.2099 549.574 34.7828L542.004 14.0408C541.123 16.0146 540.63 18.1989 540.63 20.4995ZM567.214 19.6987C567.214 17.7373 566.509 16.3789 565.905 15.3217C565.1 14.0142 564.346 12.9073 564.346 11.5999C564.346 10.1411 565.453 8.78324 567.011 8.78324C567.081 8.78324 567.148 8.79204 567.217 8.79579C564.393 6.20933 560.632 4.62967 556.5 4.62967C550.955 4.62967 546.077 7.47427 543.24 11.7832C543.612 11.7945 543.963 11.8022 544.261 11.8022C545.921 11.8022 548.491 11.6008 548.491 11.6008C549.346 11.5504 549.447 12.807 548.593 12.9083C548.593 12.9083 547.733 13.0094 546.776 13.0596L552.556 30.2495L556.029 19.8335L553.556 13.0586C552.701 13.0084 551.892 12.9073 551.892 12.9073C551.036 12.8571 551.137 11.5496 551.992 11.5998C551.992 11.5998 554.613 11.8012 556.172 11.8012C557.832 11.8012 560.402 11.5998 560.402 11.5998C561.258 11.5494 561.359 12.8059 560.504 12.9073C560.504 12.9073 559.642 13.0084 558.687 13.0586L564.423 30.1189L566.006 24.8292C566.692 22.6339 567.214 21.0574 567.214 19.6987ZM556.779 21.8879L552.017 35.7244C553.439 36.1424 554.942 36.3711 556.5 36.3711C558.348 36.3711 560.12 36.0515 561.77 35.4712C561.728 35.4033 561.689 35.3314 561.657 35.2526L556.779 21.8879ZM570.426 12.8853C570.494 13.391 570.533 13.9338 570.533 14.5173C570.533 16.1278 570.232 17.9383 569.326 20.2019L564.478 34.2178C569.196 31.4663 572.37 26.3547 572.37 20.4997C572.37 17.7405 571.665 15.1459 570.426 12.8853ZM556.5 2C546.299 2 538 10.2991 538 20.4995C538 30.7014 546.299 39 556.5 39C566.7 39 575.001 30.7012 575.001 20.4995C575.001 10.2991 566.7 2 556.5 2ZM556.5 38.1517C546.767 38.1517 538.848 30.2327 538.848 20.4993C538.848 10.7663 546.767 2.84845 556.5 2.84845C566.233 2.84845 574.151 10.7667 574.151 20.4993C574.151 30.233 566.233 38.1517 556.5 38.1517Z" fill="#B9BEC7"/>
</g>
<g clip-path="url(#clip3_1805_3820)">
<path d="M787.572 21.6051L802.054 7.13911C803.032 6.16599 804.356 5.61973 805.736 5.61973C807.115 5.61973 808.439 6.16599 809.418 7.13911L810.543 8.26453L812.799 6.00856L811.674 4.878C810.095 3.30331 807.957 2.41895 805.728 2.41895C803.499 2.41895 801.36 3.30331 799.782 4.878L785.311 19.3491L787.572 21.6051Z" fill="#B9BEC7"/>
<path d="M806.905 11.9026L804.649 9.64667L790.162 24.1332C789.184 25.1111 787.857 25.6602 786.473 25.6597C785.09 25.6592 783.763 25.1092 782.785 24.1306C781.807 23.1521 781.258 21.8251 781.259 20.4417C781.259 19.0582 781.809 17.7316 782.788 16.7537L795.286 4.25597L793.03 2L780.532 14.4978C779.736 15.2749 779.103 16.2022 778.668 17.226C778.233 18.2497 778.006 19.3495 777.999 20.4617C777.993 21.5739 778.207 22.6763 778.629 23.7052C779.052 24.734 779.674 25.6688 780.46 26.4554C781.247 27.242 782.181 27.8648 783.21 28.2877C784.239 28.7106 785.341 28.9252 786.453 28.919C787.565 28.9128 788.665 28.6861 789.689 28.2518C790.713 27.8175 791.641 27.1844 792.418 26.3892L806.905 11.9026ZM821.324 14.4978C819.746 12.9243 817.608 12.0408 815.379 12.0408C813.15 12.0408 811.012 12.9243 809.433 14.4978L794.946 28.9843L797.202 31.2403L811.689 16.7537C812.419 16.0255 813.348 15.5298 814.359 15.3293C815.37 15.1288 816.419 15.2325 817.371 15.6273C818.323 16.0221 819.137 16.6903 819.71 17.5475C820.283 18.4047 820.589 19.4125 820.589 20.4435C820.592 21.1303 820.457 21.8107 820.192 22.4444C819.927 23.0782 819.538 23.6524 819.048 24.1332L806.565 36.631L808.827 38.8869L821.324 26.3892C822.899 24.8111 823.783 22.6728 823.783 20.4435C823.783 18.2141 822.899 16.0758 821.324 14.4978Z" fill="#B9BEC7"/>
<path d="M814.284 19.2822L799.797 33.7636C798.818 34.7402 797.491 35.2886 796.108 35.2886C794.724 35.2886 793.398 34.7402 792.418 33.7636L791.293 32.6331L789.037 34.889L790.162 36.0196C791.741 37.593 793.879 38.4765 796.108 38.4765C798.337 38.4765 800.475 37.593 802.053 36.0196L816.54 21.5279L814.284 19.2822Z" fill="#B9BEC7"/>
<path d="M837.013 24.3386C837.162 25.1978 837.63 25.969 838.324 26.4969C839.12 27.0476 840.075 27.3204 841.042 27.2729C841.963 27.3315 842.874 27.06 843.612 26.5072C843.906 26.2624 844.14 25.9537 844.297 25.6046C844.454 25.2555 844.529 24.8752 844.516 24.4927C844.526 24.1349 844.443 23.7807 844.275 23.4649C844.106 23.1784 843.874 22.9341 843.596 22.7506C843.265 22.5309 842.906 22.358 842.527 22.2368L841.099 21.8051L839.737 21.4351C838.982 21.235 838.247 20.9649 837.543 20.6283C836.938 20.3422 836.378 19.9681 835.883 19.5183C835.441 19.1079 835.091 18.6088 834.855 18.0537C834.604 17.443 834.481 16.7869 834.495 16.1266C834.488 15.395 834.646 14.6713 834.958 14.0094C835.258 13.3652 835.703 12.799 836.258 12.3547C836.868 11.8662 837.566 11.4983 838.313 11.2704C839.187 10.9935 840.1 10.8599 841.017 10.8747C842.904 10.8747 844.4 11.32 845.503 12.2108C846.05 12.6511 846.503 13.196 846.836 13.8137C847.17 14.4313 847.377 15.1093 847.445 15.808L844.362 16.0598C844.209 15.3524 843.813 14.7211 843.242 14.2766C842.549 13.8138 841.725 13.59 840.893 13.6394C840.109 13.5933 839.333 13.8223 838.699 14.2869C838.446 14.4842 838.242 14.738 838.105 15.028C837.967 15.318 837.9 15.6362 837.908 15.957C837.895 16.2991 837.975 16.6382 838.139 16.9386C838.304 17.2158 838.531 17.4514 838.802 17.6272C839.132 17.8419 839.487 18.0145 839.86 18.1411C840.277 18.2952 840.749 18.4597 841.273 18.6293L842.579 19.0352C843.391 19.2922 844.126 19.5594 844.783 19.8369C845.388 20.0942 845.951 20.4406 846.453 20.8647C846.906 21.2479 847.268 21.7271 847.512 22.2676C847.776 22.9053 847.903 23.5919 847.882 24.282C847.891 25.0887 847.715 25.8867 847.368 26.6151C847.034 27.3147 846.545 27.9296 845.94 28.4137C845.289 28.9285 844.548 29.3187 843.756 29.5648C842.852 29.8457 841.911 29.9827 840.965 29.9708C839.293 30.0331 837.643 29.5694 836.248 28.6449C835.596 28.1736 835.051 27.5712 834.647 26.8765C834.242 26.1817 833.987 25.41 833.899 24.6109L837.013 24.3386ZM860.883 10.9261C862.176 10.9093 863.459 11.1468 864.661 11.6249C865.758 12.0643 866.748 12.7337 867.564 13.588C868.383 14.4591 869.018 15.4869 869.429 16.6097C869.881 17.8438 870.106 19.1496 870.092 20.4638C870.111 21.8022 869.872 23.1316 869.388 24.3797C868.938 25.514 868.257 26.5429 867.389 27.4013L869.835 30.2637V31.1527H866.752L865.041 29.0612C864.421 29.3578 863.772 29.5886 863.103 29.7498C862.382 29.904 861.647 29.9798 860.909 29.9759C859.602 29.9838 858.306 29.7323 857.096 29.2359C856.005 28.7938 855.022 28.1226 854.213 27.2677C853.404 26.4006 852.78 25.3777 852.379 24.2615C851.935 23.0395 851.714 21.7482 851.726 20.4484C851.713 19.1402 851.934 17.8402 852.379 16.6097C852.782 15.4896 853.412 14.4646 854.229 13.5983C855.043 12.7438 856.029 12.0712 857.122 11.6249C858.316 11.1411 859.595 10.9034 860.883 10.9261ZM860.858 13.6805C860.009 13.6674 859.169 13.8429 858.396 14.1944C857.687 14.5222 857.06 15.0051 856.562 15.6076C856.044 16.2393 855.653 16.9652 855.411 17.7454C855.142 18.614 855.011 19.5189 855.02 20.4279C855.011 21.3447 855.148 22.2572 855.426 23.1309C855.675 23.9182 856.069 24.6519 856.587 25.2944C857.085 25.9042 857.711 26.3957 858.422 26.7333C859.193 27.0872 860.035 27.2629 860.883 27.2472C861.731 27.2554 862.571 27.0801 863.345 26.7333C864.053 26.4125 864.68 25.9365 865.18 25.3406C865.704 24.708 866.099 23.978 866.341 23.1926C866.622 22.2983 866.761 21.3653 866.752 20.4279C866.76 19.504 866.621 18.5847 866.341 17.7042C866.095 16.9234 865.701 16.1975 865.18 15.5665C864.675 14.9705 864.045 14.4933 863.335 14.1687C862.555 13.8271 861.709 13.6605 860.858 13.6805ZM882.205 27.3756C882.776 27.4108 883.348 27.3204 883.881 27.1109C884.413 26.9014 884.894 26.5778 885.288 26.1629C886.018 25.3578 886.383 24.121 886.383 22.4526V11.2806H889.584V22.5554C889.609 23.7104 889.436 24.8612 889.07 25.9573C888.775 26.8352 888.277 27.6311 887.616 28.2801C886.96 28.9008 886.166 29.3554 885.298 29.6059C883.281 30.1639 881.149 30.1639 879.132 29.6059C878.267 29.3552 877.476 28.9005 876.824 28.2801C876.165 27.6298 875.667 26.8343 875.37 25.9573C875.005 24.8612 874.831 23.7104 874.856 22.5554V11.2806H878.068V22.4526C878.068 24.1176 878.434 25.3543 879.168 26.1629C879.556 26.5722 880.029 26.8926 880.553 27.102C881.078 27.3113 881.641 27.4047 882.205 27.3756ZM892.791 28.722L899.292 11.3012H904.112L910.541 28.722V29.5956H907.38L905.54 24.3643H897.611L895.751 29.5956H892.77L892.791 28.722ZM898.577 21.6304H904.626L903.629 18.7218C903.238 17.5861 902.925 16.6662 902.683 15.9416C902.442 15.217 902.236 14.6004 902.046 14.0556H901.26L900.951 14.9241C900.849 15.2119 900.736 15.5356 900.607 15.8902C900.479 16.2448 900.34 16.6559 900.186 17.1184C900.032 17.5809 899.847 18.1102 899.626 18.7218L898.577 21.6304ZM928.496 29.5956H925.413L919.827 22.4012H917.771V29.5956H914.605V11.2806H920.551C921.442 11.2791 922.332 11.3426 923.213 11.4708C924.032 11.5895 924.814 11.8917 925.5 12.3547C926.946 13.3071 927.668 14.7425 927.668 16.6611C927.683 17.4046 927.556 18.144 927.293 18.8399C927.071 19.4259 926.738 19.9633 926.312 20.4227C925.905 20.8545 925.427 21.2126 924.899 21.4813C924.369 21.7522 923.808 21.9576 923.228 22.0929L928.496 28.722V29.5956ZM917.761 19.6468H920.541C921.549 19.7004 922.552 19.4689 923.434 18.9787C923.789 18.7412 924.075 18.413 924.261 18.0281C924.447 17.6432 924.527 17.2156 924.493 16.7895C924.535 16.3666 924.456 15.9404 924.266 15.5603C924.076 15.1802 923.782 14.8616 923.419 14.6415C922.527 14.1979 921.536 13.9892 920.541 14.0351H917.761V19.6468ZM932.576 11.2806H944.437V14.0865H935.701V18.8811H943.81V21.6355H935.716V26.7744H944.617V29.5956H932.576V11.2806ZM951.708 24.3386C951.856 25.1978 952.325 25.969 953.019 26.4969C953.815 27.0469 954.77 27.3196 955.737 27.2729C956.657 27.3315 957.568 27.06 958.307 26.5072C958.601 26.2624 958.835 25.9537 958.992 25.6046C959.149 25.2555 959.224 24.8752 959.211 24.4927C959.221 24.1349 959.138 23.7807 958.969 23.4649C958.801 23.1784 958.569 22.9341 958.291 22.7506C957.96 22.5309 957.601 22.358 957.222 22.2368L955.794 21.8051L954.416 21.4248C953.661 21.2248 952.927 20.9547 952.222 20.618C951.617 20.3319 951.058 19.9579 950.562 19.508C950.12 19.0977 949.77 18.5986 949.534 18.0434C949.281 17.3966 949.159 16.7055 949.176 16.0109C949.194 15.3162 949.351 14.6322 949.637 13.9991C949.939 13.356 950.384 12.7901 950.937 12.3444C951.548 11.8559 952.245 11.488 952.993 11.2601C953.867 10.9832 954.78 10.8496 955.696 10.8644C957.584 10.8644 959.081 11.3098 960.187 12.2005C960.733 12.641 961.186 13.1861 961.519 13.8038C961.851 14.4215 962.057 15.0994 962.125 15.7977L959.041 16.0495C958.892 15.3435 958.499 14.7125 957.931 14.2663C957.239 13.8028 956.414 13.5789 955.583 13.6291C954.798 13.583 954.022 13.812 953.389 14.2766C953.136 14.4744 952.934 14.7285 952.797 15.0185C952.661 15.3084 952.594 15.6263 952.602 15.9467C952.588 16.2883 952.666 16.6274 952.828 16.9283C952.994 17.2056 953.221 17.4412 953.491 17.6169C953.821 17.8316 954.177 18.0042 954.55 18.1308C954.966 18.2849 955.439 18.4494 955.968 18.619L957.268 19.0249C958.084 19.2819 958.819 19.5491 959.473 19.8266C960.078 20.0839 960.641 20.4303 961.143 20.8544C961.596 21.2376 961.958 21.7168 962.202 22.2573C962.466 22.8951 962.592 23.5817 962.572 24.2718C962.58 25.0784 962.405 25.8764 962.058 26.6048C961.725 27.3055 961.237 27.9208 960.629 28.4034C959.977 28.914 959.237 29.3007 958.445 29.5442C957.54 29.8251 956.597 29.9621 955.65 29.9502C953.977 30.0118 952.328 29.5482 950.932 28.6244C950.285 28.1543 949.743 27.5547 949.341 26.8638C948.938 26.1728 948.684 25.4056 948.594 24.6109L951.708 24.3386ZM967.135 11.2806H973.816C974.874 11.2533 975.93 11.4009 976.94 11.7174C977.708 11.9541 978.411 12.3637 978.996 12.9148C979.509 13.4146 979.894 14.0319 980.116 14.7134C980.352 15.4331 980.468 16.1865 980.46 16.9437C980.481 17.797 980.32 18.6449 979.988 19.4309C979.687 20.1182 979.219 20.719 978.626 21.1781C977.977 21.6586 977.24 22.0078 976.457 22.2059C975.516 22.4475 974.546 22.5632 973.574 22.5502H970.337V29.5956H967.145L967.135 11.2806ZM970.326 19.8009H973.384C973.901 19.8048 974.418 19.7583 974.926 19.6622C975.358 19.5812 975.773 19.4228 976.149 19.1945C976.495 18.978 976.777 18.6728 976.966 18.3106C977.173 17.8854 977.273 17.4163 977.259 16.9437C977.274 16.4594 977.174 15.9785 976.966 15.5408C976.783 15.174 976.504 14.8633 976.159 14.6415C975.789 14.4116 975.38 14.253 974.951 14.1738C974.443 14.077 973.927 14.0305 973.41 14.0351H970.301L970.326 19.8009ZM981.344 28.722L987.85 11.3012H992.67L999.094 28.722V29.5956H995.959L994.125 24.3643H986.164L984.33 29.5956H981.344V28.722ZM987.136 21.6304H993.179L992.182 18.7218C991.792 17.5861 991.478 16.6662 991.242 15.9416L990.604 14.0556H989.793L989.484 14.9241C989.381 15.2119 989.268 15.5356 989.14 15.8902C989.011 16.2448 988.873 16.6559 988.719 17.1184C988.564 17.5809 988.379 18.1102 988.158 18.7218L987.136 21.6304ZM1018.53 24.7497C1018.24 25.4662 1017.86 26.1431 1017.4 26.7641C1016.92 27.4008 1016.35 27.9591 1015.7 28.4188C1014.99 28.9134 1014.21 29.2917 1013.39 29.5391C1012.44 29.8226 1011.46 29.9612 1010.47 29.9502C1009.2 29.9696 1007.93 29.7265 1006.75 29.2359C1005.67 28.7858 1004.7 28.1134 1003.9 27.2626C1003.09 26.3923 1002.47 25.3679 1002.07 24.2512C1001.64 23.0365 1001.42 21.7543 1001.43 20.4638C1001.42 19.1733 1001.64 17.891 1002.07 16.6765C1002.47 15.5548 1003.1 14.5265 1003.91 13.6548C1004.72 12.7949 1005.69 12.1124 1006.78 11.6506C1007.96 11.1536 1009.23 10.9069 1010.51 10.9261C1012.3 10.8627 1014.05 11.3527 1015.55 12.329C1016.88 13.2334 1017.88 14.5363 1018.42 16.0495L1015.18 16.6867C1014.77 15.7967 1014.14 15.0342 1013.33 14.4822C1012.48 13.9303 1011.48 13.6507 1010.46 13.6805C1009.63 13.6623 1008.8 13.8382 1008.05 14.1944C1007.36 14.5344 1006.75 15.0241 1006.27 15.6281C1005.76 16.2716 1005.39 17.006 1005.16 17.7916C1004.9 18.6561 1004.77 19.5553 1004.77 20.4587C1004.76 21.3679 1004.9 22.2729 1005.17 23.1412C1005.41 23.919 1005.8 24.643 1006.31 25.2738C1006.82 25.8662 1007.44 26.3415 1008.15 26.6665C1008.92 27.0189 1009.75 27.1945 1010.6 27.1804C1011.65 27.2226 1012.69 26.9173 1013.54 26.3119C1014.3 25.7571 1014.92 25.0318 1015.34 24.1947L1018.53 24.7497ZM1022.84 11.2806H1034.7V14.0865H1025.97V18.8811H1034.09V21.6355H1025.98V26.7744H1034.88V29.5956H1022.84V11.2806Z" fill="#B9BEC7"/>
</g>
<defs>
<clipPath id="clip0_1805_3820">
<rect width="128" height="37" fill="white" transform="translate(0 2)"/>
</clipPath>
<clipPath id="clip1_1805_3820">
<rect width="128" height="32.25" fill="white" transform="translate(333 4.375)"/>
</clipPath>
<clipPath id="clip2_1805_3820">
<rect width="163.07" height="37" fill="white" transform="translate(538 2)"/>
</clipPath>
<clipPath id="clip3_1805_3820">
<rect width="256.944" height="37" fill="white" transform="translate(778.07 2)"/>
</clipPath>
</defs>
</svg>
