<svg width="35" height="35" viewBox="0 0 35 35" fill="none" xmlns="http://www.w3.org/2000/svg">
<path d="M17.5 30.6249C10.2511 30.6249 4.37498 24.7488 4.37498 17.4999C4.37498 10.2509 10.2511 4.37486 17.5 4.37486C24.7489 4.37486 30.625 10.2509 30.625 17.4999C30.625 24.7488 24.7489 30.6249 17.5 30.6249ZM26.2544 17.4999C26.2409 17.1304 26.1208 16.7728 25.9086 16.47C25.6964 16.1673 25.4012 15.9324 25.0585 15.7937C24.7158 15.6549 24.3403 15.6183 23.9773 15.6881C23.6143 15.758 23.2792 15.9314 23.0125 16.1874C21.5194 15.1724 19.7643 14.6117 17.9594 14.573L18.8125 10.478L21.6212 11.0686C21.6546 11.379 21.7976 11.6673 22.0244 11.8818C22.2512 12.0963 22.547 12.223 22.8588 12.239C23.1705 12.255 23.4778 12.1594 23.7254 11.9693C23.9731 11.7792 24.1448 11.5071 24.2099 11.2018C24.275 10.8965 24.2291 10.578 24.0805 10.3034C23.9319 10.0289 23.6903 9.81632 23.3991 9.70386C23.1078 9.5914 22.7861 9.58641 22.4915 9.6898C22.197 9.79319 21.9489 9.99819 21.7919 10.268L18.5762 9.62486C18.5237 9.61333 18.4693 9.61234 18.4163 9.62197C18.3633 9.63159 18.3128 9.65164 18.2676 9.68094C18.2225 9.71024 18.1836 9.74821 18.1532 9.79266C18.1228 9.8371 18.1015 9.88714 18.0906 9.93986L17.1194 14.4942C15.2922 14.5218 13.513 15.0829 12.0006 16.1086C11.7983 15.9182 11.557 15.7741 11.2934 15.6863C11.0298 15.5984 10.7503 15.569 10.4742 15.5999C10.1982 15.6308 9.93209 15.7214 9.69448 15.8653C9.45688 16.0093 9.25342 16.2032 9.09821 16.4336C8.94299 16.664 8.83973 16.9254 8.79559 17.1997C8.75144 17.474 8.76746 17.7546 8.84254 18.0221C8.91762 18.2896 9.04997 18.5375 9.2304 18.7488C9.41083 18.96 9.63504 19.1295 9.88749 19.2455C9.87271 19.4377 9.87271 19.6308 9.88749 19.823C9.88749 22.763 13.3131 25.1517 17.5394 25.1517C21.7656 25.1517 25.1912 22.763 25.1912 19.823C25.206 19.6308 25.206 19.4377 25.1912 19.2455C25.5151 19.0845 25.7868 18.8352 25.975 18.5263C26.1631 18.2173 26.26 17.8615 26.2544 17.4999ZM13.1294 18.8124C13.1294 18.4643 13.2676 18.1304 13.5138 17.8843C13.7599 17.6381 14.0938 17.4999 14.4419 17.4999C14.79 17.4999 15.1238 17.6381 15.3699 17.8843C15.6161 18.1304 15.7544 18.4643 15.7544 18.8124C15.7544 19.1605 15.6161 19.4943 15.3699 19.7404C15.1238 19.9866 14.79 20.1249 14.4419 20.1249C14.0938 20.1249 13.7599 19.9866 13.5138 19.7404C13.2676 19.4943 13.1294 19.1605 13.1294 18.8124ZM20.755 22.4217C19.8238 23.1235 18.6781 23.4806 17.5131 23.4324C16.3481 23.4806 15.2024 23.1235 14.2712 22.4217C14.2154 22.3537 14.1869 22.2674 14.1912 22.1795C14.1955 22.0917 14.2324 22.0086 14.2946 21.9463C14.3568 21.8841 14.4399 21.8473 14.5278 21.843C14.6157 21.8387 14.702 21.8672 14.77 21.923C15.5591 22.5018 16.5223 22.7936 17.5 22.7499C18.4789 22.8031 19.4466 22.5207 20.2431 21.9492C20.2767 21.9116 20.3176 21.8814 20.3634 21.8603C20.4092 21.8392 20.4588 21.8277 20.5092 21.8266C20.5596 21.8255 20.6097 21.8348 20.6563 21.8538C20.703 21.8729 20.7452 21.9014 20.7804 21.9374C20.8156 21.9735 20.843 22.0165 20.8608 22.0636C20.8787 22.1107 20.8867 22.161 20.8843 22.2114C20.882 22.2617 20.8692 22.311 20.847 22.3563C20.8247 22.4015 20.7934 22.4416 20.755 22.4742V22.4217ZM20.5187 20.1774C20.2592 20.1774 20.0054 20.1004 19.7896 19.9562C19.5737 19.812 19.4055 19.607 19.3061 19.3671C19.2068 19.1273 19.1808 18.8634 19.2315 18.6088C19.2821 18.3542 19.4071 18.1203 19.5907 17.9368C19.7742 17.7532 20.0081 17.6282 20.2627 17.5776C20.5173 17.5269 20.7812 17.5529 21.021 17.6523C21.2608 17.7516 21.4658 17.9198 21.61 18.1357C21.7543 18.3515 21.8312 18.6053 21.8312 18.8649C21.8384 19.0427 21.8093 19.2201 21.7457 19.3864C21.6821 19.5526 21.5854 19.7042 21.4614 19.8318C21.3374 19.9595 21.1887 20.0606 21.0244 20.1291C20.8601 20.1975 20.6836 20.2318 20.5056 20.2299L20.5187 20.1774Z" fill="#352474"/>
</svg>
