<svg width="35" height="35" viewBox="0 0 35 35" fill="none" xmlns="http://www.w3.org/2000/svg">
<path fill-rule="evenodd" clip-rule="evenodd" d="M28.8337 11.7962C28.8436 12.0512 28.8469 12.3061 28.8469 12.5612C28.8469 20.2936 23.4076 29.2201 13.4609 29.2201C10.4054 29.2201 7.56429 28.2463 5.17049 26.5885C5.59364 26.6349 6.02338 26.6698 6.45972 26.6698C8.99311 26.6698 11.3265 25.7306 13.1773 24.1539C10.811 24.1192 8.81286 22.415 8.12374 20.0965C8.45456 20.166 8.79526 20.2009 9.14366 20.2009C9.63495 20.2009 10.112 20.1314 10.5692 19.9923C8.09294 19.4591 6.22782 17.0942 6.22782 14.254C6.22782 14.2192 6.22782 14.2075 6.22782 14.1843C6.95761 14.6133 7.7929 14.8798 8.67985 14.9145C7.22687 13.8596 6.27175 12.0628 6.27175 10.034C6.27175 8.96749 6.53773 7.95888 7.00594 7.08942C9.67231 10.6368 13.6587 12.967 18.1529 13.2104C18.0605 12.7815 18.0133 12.3295 18.0133 11.8774C18.0133 8.643 20.4345 6.02297 23.4218 6.02297C24.977 6.02297 26.3817 6.73023 27.3675 7.86633C28.6018 7.61128 29.7581 7.12442 30.8044 6.45204C30.3988 7.81999 29.5426 8.96744 28.4238 9.68619C29.5184 9.54707 30.5626 9.23431 31.5309 8.7706C30.8044 9.94147 29.8899 10.9731 28.8337 11.7962Z" fill="#352474"/>
</svg>
