<svg width="27" height="26" viewBox="0 0 27 26" fill="none" xmlns="http://www.w3.org/2000/svg">
<g clip-path="url(#clip0_1817_3412)">
<path d="M20.7902 4.47914C19.1942 3.97157 17.5035 3.63749 15.7573 3.50641C15.7255 3.50373 15.6955 3.51891 15.6818 3.54566C15.5034 3.89693 15.3122 4.35197 15.182 4.70807C13.3076 4.60491 11.467 4.74751 9.67925 5.13439C9.48043 4.79607 9.19515 4.38565 8.94954 4.06723C8.93098 4.04383 8.89841 4.03351 8.86752 4.04018C7.17443 4.43686 5.5749 5.02584 4.1018 5.77204C4.08903 5.77817 4.07848 5.78755 4.07198 5.79919C1.36144 10.1896 0.906433 14.3025 1.72063 18.2666C1.72446 18.286 1.73864 18.3037 1.7569 18.3143C3.94861 19.5003 6.02357 20.1626 8.03433 20.5524C8.06647 20.5585 8.09867 20.5457 8.11633 20.5212C8.52373 19.9227 8.87781 19.2974 9.17006 18.6461C9.18732 18.608 9.16311 18.5662 9.11899 18.555C8.44252 18.3847 7.79258 18.1636 7.16274 17.9041C7.11287 17.8831 7.10311 17.823 7.1439 17.7908C7.26177 17.6968 7.3793 17.5995 7.49106 17.5018C7.51128 17.4839 7.54131 17.4782 7.56793 17.4864C11.6652 18.7817 15.9299 18.4513 19.6644 16.5493C19.689 16.5362 19.7197 16.5373 19.744 16.5516C19.8732 16.6307 20.0082 16.7093 20.1436 16.7836C20.1901 16.8091 20.1932 16.8697 20.1482 16.898C19.5794 17.2564 18.9821 17.5682 18.3483 17.8391C18.307 17.8569 18.2924 17.9026 18.3169 17.9375C18.7399 18.5325 19.2113 19.0938 19.7213 19.6213C19.7426 19.6436 19.7778 19.6512 19.8083 19.6402C21.7215 18.9465 23.6351 17.9751 25.5609 16.4701C25.5778 16.4568 25.5874 16.4381 25.5874 16.4184C25.6328 11.7591 23.8937 7.84958 20.8241 4.50221C20.8163 4.49083 20.804 4.48321 20.7902 4.47914ZM9.42406 15.2177C8.23812 15.3096 7.16518 14.4163 7.04762 13.2264C6.93005 12.0364 7.79255 10.9932 8.99746 10.8999C10.2119 10.8058 11.2761 11.7083 11.3739 12.8912C11.4915 14.0812 10.629 15.1244 9.42406 15.2177ZM17.422 14.5981C16.2361 14.69 15.1631 13.7967 15.0455 12.6067C14.928 11.4168 15.7905 10.3736 16.9954 10.2802C18.2098 10.1862 19.2741 11.0887 19.3718 12.2716C19.4894 13.4615 18.6364 14.504 17.422 14.5981Z" fill="white"/>
</g>
<defs>
<clipPath id="clip0_1817_3412">
<rect width="23.9152" height="24.0251" fill="white" transform="matrix(1.00646 -0.0779739 0.0992523 1.00459 0 1.86517)"/>
</clipPath>
</defs>
</svg>
