<svg width="300" height="90" viewBox="0 0 300 90" fill="none" xmlns="http://www.w3.org/2000/svg">
<g clip-path="url(#clip0_1817_3415)">
<path d="M6.22015e-05 70.8878C14.7574 45.1166 86.825 14.1268 137.014 10.9824C191.252 7.46241 221.898 15.2806 283.333 48.797C282.753 44.5555 281.909 41.1384 281.685 37.9706C281.277 34.3707 280.881 30.5614 281.317 27.0146C281.383 25.9675 283.4 24.2025 284.68 24.0729C285.959 23.9432 287.976 25.5421 288.332 26.6157C291.497 36.907 294.239 47.1716 297.179 57.6589C298.023 61.076 296.598 63.5092 292.946 64.3303C279.02 66.8166 265.082 69.5124 250.958 71.776C247.754 72.2048 244.009 71.1278 239.789 70.8619C243.733 62.0698 251.262 63.5955 256.893 61.6377C262.748 59.4837 268.959 58.4034 276.502 56.3559C259.729 43.525 242.468 35.0786 223.98 29.2881C156.28 7.78143 92.0863 18.0326 31.2406 52.4628C23.3283 57.0101 15.9961 62.4349 8.2816 67.2048C5.89473 68.1056 3.71883 69.0197 6.22015e-05 70.8878Z" fill="#060640"/>
</g>
<defs>
<clipPath id="clip0_1817_3415">
<rect width="296" height="71" fill="white" transform="translate(4.46737) scale(1.0004) rotate(3.60606)"/>
</clipPath>
</defs>
</svg>
