<svg width="630" height="713" viewBox="0 0 630 713" fill="none" xmlns="http://www.w3.org/2000/svg">
<rect width="630" height="713" rx="20" fill="#E4F4E6"/>
<rect x="298.414" y="126.295" width="251.028" height="198.033" transform="rotate(10.5574 298.414 126.295)" fill="white"/>
<rect x="298.414" y="126.295" width="251.028" height="15.3406" transform="rotate(10.5574 298.414 126.295)" fill="#E9E9E9"/>
<rect x="304.365" y="162.869" width="225.925" height="64.1515" transform="rotate(10.5574 304.365 162.869)" fill="#DB1BFB"/>
<rect x="322.546" y="255.63" width="16.7352" height="12.5514" transform="rotate(10.5574 322.546 255.63)" fill="#6C63FE"/>
<rect x="319.222" y="273.452" width="16.7352" height="12.5514" transform="rotate(10.5574 319.222 273.452)" fill="#FE5A5A"/>
<rect x="315.901" y="291.274" width="16.7352" height="12.5514" transform="rotate(10.5574 315.901 291.274)" fill="#FF9800"/>
<rect x="360.421" y="265.528" width="115.752" height="6.97299" transform="rotate(10.5574 360.421 265.528)" fill="#C6BFFF"/>
<rect x="357.098" y="283.35" width="115.752" height="6.97299" transform="rotate(10.5574 357.098 283.35)" fill="#C6BFFF"/>
<rect x="353.776" y="301.172" width="115.752" height="6.97299" transform="rotate(10.5574 353.776 301.172)" fill="#C6BFFF"/>
<circle cx="308.662" cy="136.007" r="2.0919" transform="rotate(10.5574 308.662 136.007)" fill="#EB5757"/>
<circle cx="316.887" cy="137.541" r="2.0919" transform="rotate(10.5574 316.887 137.541)" fill="#F2C94C"/>
<circle cx="325.114" cy="139.074" r="2.0919" transform="rotate(10.5574 325.114 139.074)" fill="#3BE88B"/>
<rect width="251.028" height="198.033" transform="matrix(-0.983072 0.183221 0.183221 0.983072 330.778 126.295)" fill="white"/>
<rect width="251.028" height="15.3406" transform="matrix(-0.983072 0.183221 0.183221 0.983072 330.778 126.295)" fill="#E9E9E9"/>
<rect width="225.925" height="64.1515" transform="matrix(-0.983072 0.183221 0.183221 0.983072 324.827 162.869)" fill="#28D4CD"/>
<rect width="16.7352" height="12.5514" transform="matrix(-0.983072 0.183221 0.183221 0.983072 306.646 255.631)" fill="#6C63FE"/>
<rect width="16.7352" height="12.5514" transform="matrix(-0.983072 0.183221 0.183221 0.983072 309.971 273.452)" fill="#FE5A5A"/>
<rect width="16.7352" height="12.5514" transform="matrix(-0.983072 0.183221 0.183221 0.983072 313.294 291.275)" fill="#FF9800"/>
<rect width="115.752" height="6.97299" transform="matrix(-0.983072 0.183221 0.183221 0.983072 268.769 265.528)" fill="#C6BFFF"/>
<rect width="115.752" height="6.97299" transform="matrix(-0.983072 0.183221 0.183221 0.983072 272.094 283.349)" fill="#C6BFFF"/>
<rect width="115.752" height="6.97299" transform="matrix(-0.983072 0.183221 0.183221 0.983072 275.418 301.172)" fill="#C6BFFF"/>
<circle cx="2.0919" cy="2.0919" r="2.0919" transform="matrix(-0.983072 0.183221 0.183221 0.983072 322.203 133.567)" fill="#EB5757"/>
<circle cx="2.0919" cy="2.0919" r="2.0919" transform="matrix(-0.983072 0.183221 0.183221 0.983072 313.979 135.101)" fill="#F2C94C"/>
<circle cx="2.0919" cy="2.0919" r="2.0919" transform="matrix(-0.983072 0.183221 0.183221 0.983072 305.751 136.634)" fill="#3BE88B"/>
<g filter="url(#filter0_d_1805_3748)">
<rect x="162.037" y="117.813" width="305.368" height="240.901" fill="white"/>
<rect x="162.037" y="117.813" width="305.368" height="18.6614" fill="#E9E9E9"/>
<rect x="177.306" y="160.226" width="274.831" height="78.0384" fill="url(#paint0_linear_1805_3748)"/>
<rect x="219.718" y="267.104" width="20.3578" height="15.2684" fill="#6C63FE"/>
<rect x="219.718" y="289.159" width="20.3578" height="15.2684" fill="#FE5A5A"/>
<rect x="219.718" y="311.212" width="20.3578" height="15.2684" fill="#FF9800"/>
<rect x="267.22" y="270.498" width="140.808" height="8.48244" fill="#C6BFFF"/>
<rect x="267.22" y="292.552" width="140.808" height="8.48244" fill="#C6BFFF"/>
<rect x="267.22" y="314.606" width="140.808" height="8.48244" fill="#C6BFFF"/>
<circle cx="176.458" cy="127.145" r="2.54473" fill="#EB5757"/>
<circle cx="186.636" cy="127.145" r="2.54473" fill="#F2C94C"/>
<circle cx="196.816" cy="127.145" r="2.54473" fill="#3BE88B"/>
</g>
<circle cx="304.003" cy="109.812" r="45.8119" fill="#F44364" stroke="white" stroke-width="4"/>
<path d="M304.003 66.0001C292.384 66.0001 281.24 70.616 273.024 78.8324C264.807 87.0487 260.191 98.1924 260.191 109.812C260.191 121.432 264.807 132.575 273.024 140.792C281.24 149.008 292.384 153.624 304.003 153.624L304.003 109.812L304.003 66.0001Z" fill="#E43153"/>
<path d="M306.849 107.574C303.383 104.108 297.764 104.108 294.298 107.574L288.022 113.849C284.556 117.315 284.556 122.935 288.022 126.401C291.488 129.866 297.108 129.866 300.574 126.401L303.711 123.263M300.574 113.849C304.04 117.315 309.659 117.315 313.125 113.849L319.401 107.574C322.866 104.108 322.866 98.4883 319.401 95.0223C315.935 91.5564 310.315 91.5564 306.849 95.0223L303.711 98.1601" stroke="white" stroke-width="5.3029" stroke-linecap="round" stroke-linejoin="round"/>
<defs>
<filter id="filter0_d_1805_3748" x="129.658" y="89.1344" width="370.126" height="305.659" filterUnits="userSpaceOnUse" color-interpolation-filters="sRGB">
<feFlood flood-opacity="0" result="BackgroundImageFix"/>
<feColorMatrix in="SourceAlpha" type="matrix" values="0 0 0 0 0 0 0 0 0 0 0 0 0 0 0 0 0 0 127 0" result="hardAlpha"/>
<feOffset dy="3.70047"/>
<feGaussianBlur stdDeviation="16.1895"/>
<feColorMatrix type="matrix" values="0 0 0 0 0 0 0 0 0 0 0 0 0 0 0 0 0 0 0.15 0"/>
<feBlend mode="normal" in2="BackgroundImageFix" result="effect1_dropShadow_1805_3748"/>
<feBlend mode="normal" in="SourceGraphic" in2="effect1_dropShadow_1805_3748" result="shape"/>
</filter>
<linearGradient id="paint0_linear_1805_3748" x1="166.279" y1="199.245" x2="430.082" y2="199.245" gradientUnits="userSpaceOnUse">
<stop stop-color="#800A9B"/>
<stop offset="1" stop-color="#210139"/>
</linearGradient>
</defs>
</svg>
