<svg width="296" height="71" viewBox="0 0 296 71" fill="none" xmlns="http://www.w3.org/2000/svg">
<g clip-path="url(#clip0_1805_3752)">
<path d="M296 -2.81974e-05C282.898 26.6376 212.95 62.0846 163.078 68.377C109.191 75.2986 78.1268 69.4257 14.7301 39.8516C15.5754 44.0465 16.632 47.4024 17.0546 50.5486C17.6886 54.1143 18.3226 57.8897 18.1113 61.4554C18.1113 62.5041 16.2094 64.3918 14.9414 64.6016C13.6735 64.8113 11.5603 63.3431 11.1376 62.2944C7.33382 52.2266 3.95268 42.1588 0.360206 31.8813C-0.696405 28.5254 0.571534 26.0084 4.16401 24.9597C17.9 21.6038 31.6359 18.0381 45.5831 14.8919C48.753 14.2627 52.5568 15.1016 56.7832 15.1016C53.4021 24.1207 45.7945 23.072 40.3001 25.3792C34.5944 27.8961 28.4661 29.3643 21.0698 31.8813C38.6095 43.627 56.3606 50.9681 75.1683 55.5825C144.059 72.7816 207.456 58.5189 265.992 20.3453C273.6 15.3114 280.573 9.43851 287.97 4.19488C290.294 3.14615 292.408 2.09742 296 -2.81974e-05Z" fill="#060640"/>
</g>
<defs>
<clipPath id="clip0_1805_3752">
<rect width="296" height="71" fill="white" transform="translate(296 71) rotate(180)"/>
</clipPath>
</defs>
</svg>
