<svg width="26" height="28" viewBox="0 0 26 28" fill="none" xmlns="http://www.w3.org/2000/svg">
<mask id="mask0_1684_4419" style="mask-type:luminance" maskUnits="userSpaceOnUse" x="-11" y="-12" width="49" height="49">
<path d="M37.4025 -11.8211H-10.6743V36.2556H37.4025V-11.8211Z" fill="white"/>
</mask>
<g mask="url(#mask0_1684_4419)">
<mask id="mask1_1684_4419" style="mask-type:luminance" maskUnits="userSpaceOnUse" x="-38" y="-32" width="93" height="68">
<path d="M-37.2964 -31.8795H54.8071V35.0858H-37.2964V-31.8795Z" fill="white"/>
</mask>
<g mask="url(#mask1_1684_4419)">
<g opacity="0.99">
<path d="M19.0759 12.1203C18.5274 13.0631 20.2374 14.2014 19.8366 15.3564C19.4781 16.3857 18.3108 18.1932 19.0219 18.2777C19.8052 18.3709 20.6855 17.9899 22.0568 15.7107C22.5649 14.8506 21.4516 11.2065 21.4516 11.2065C21.4516 11.2065 19.6245 11.1776 19.0759 12.1203Z" fill="#999999"/>
</g>
<path d="M8.20491 15.2048C7.63852 15.6365 4.26674 16.8165 4.63251 17.6018C5.01693 18.3773 5.58794 19.4371 5.15001 21.0042C4.82391 22.1763 3.24682 22.6239 2.3913 23.0008C0.853081 23.683 -0.802069 24.7226 0.430164 26.1456C0.823004 26.5962 1.88639 25.4689 2.98121 25.1397C5.84708 24.2779 8.02239 22.2575 8.26611 20.9166C9.18064 15.9322 7.86253 16.2279 7.86253 16.2279C7.86253 16.2279 8.77129 14.7732 8.20491 15.2048Z" fill="#999999"/>
<path d="M9.13398 13.5164C7.18139 14.4964 5.78055 14.3238 4.5911 15.4711C4.11219 15.9331 3.80605 18.002 4.36846 18.7763C5.65339 20.5577 6.06254 20.5974 6.06254 20.5974C6.03394 21.0559 5.70431 21.8974 5.3828 22.2969C4.40789 23.4513 0.90015 23.4657 0.715997 25.6022C0.581135 27.1478 1.12182 27.6506 2.14402 26.5275C3.02509 25.4926 5.70556 25.1817 6.76228 24.5119C7.49604 24.0504 8.39564 23.4859 8.68739 23.0372C9.48488 21.8413 10.814 20.5938 10.272 19.1392C10.2357 19.0403 11.5079 19.4482 14.1303 18.1461C15.2716 17.5794 19.6807 14.4137 20.7424 13.6557C21.8041 12.8977 22.3801 10.1606 22.3801 10.1606L19.9711 7.77017C19.9711 7.77017 17.9238 8.39319 15.905 9.8649C12.9102 12.0513 10.3945 12.8831 9.13398 13.5164Z" fill="#AEB1B0"/>
<path d="M17.974 10.9938C17.5138 11.9778 19.3308 13.1822 19.3308 13.1822C19.3308 13.1822 21.0757 14.1907 20.9331 15.5664C20.7987 17.0238 20.5752 17.5121 20.9356 18.3061C21.3686 19.0182 22.5576 17.6589 23.0705 16.6437C23.7081 15.4137 23.0859 14.8275 22.6446 13.4919C22.3659 12.6391 21.6069 11.9346 21.1026 10.7146C20.5476 9.37172 18.9335 9.93358 18.9335 9.93358C18.9335 9.93358 18.4342 10.0098 17.974 10.9938Z" fill="#AEB1B0"/>
<path d="M2.03933 15.0124C2.03933 15.0124 1.69697 16.0403 2.01042 16.5917C2.2525 17.0175 2.58945 17.4807 3.36444 17.5488C4.13944 17.6169 4.2194 17.3573 4.2194 17.3573L4.23638 16.3316C4.23638 16.3316 2.80056 14.4932 2.36149 14.541C2.09284 14.5703 2.03933 15.0124 2.03933 15.0124Z" fill="#AEB1B0"/>
<path d="M4.31145 16.3606C4.31145 16.3606 3.28012 15.1828 2.70458 14.7258C2.12904 14.2688 2.27768 15.1624 2.27714 15.1186C2.27664 15.0818 2.65378 16.534 3.47863 16.9018C4.30348 17.2695 4.21166 17.0138 4.21166 17.0138L4.31145 16.3606Z" fill="#EAEAEA"/>
<path d="M20.7651 4.48509C20.7651 4.48509 19.3774 2.15354 18.4768 1.32367C17.5761 0.493801 14.1534 -0.22855 13.4679 0.0676703C12.7824 0.363891 14.5525 1.98244 16.1318 2.98913C17.7111 3.99583 20.2808 5.33561 20.2808 5.33561L20.7651 4.48509Z" fill="#AEB1B0"/>
<path d="M21.1554 4.81915L20.3745 5.43573C20.3745 5.43573 18.978 4.68119 17.6607 3.92779C18.1551 3.93796 18.308 3.62428 17.6369 2.65014C16.6824 1.26517 15.3526 0.47381 14.3119 0.0361906C15.5962 0.133477 17.7531 0.737841 18.4717 1.34591C19.4921 2.20934 21.5247 4.92427 21.1554 4.81915Z" fill="#999999"/>
<path d="M20.1359 6.2409C20.1359 6.2409 16.1927 6.59529 15.4191 6.35533C14.6454 6.11538 11.1165 4.96996 10.714 3.86136C10.3116 2.75277 14.5104 2.61335 15.0103 2.75145C15.5103 2.88955 19.5141 4.69112 20.109 4.96045C20.704 5.22978 20.1359 6.2409 20.1359 6.2409Z" fill="#AEB1B0"/>
<path d="M19.7155 5.24545C19.7155 5.24545 16.241 3.7607 15.8835 3.81945C15.5261 3.8782 13.5195 3.73075 13.2027 4.26005C12.8858 4.78936 15.5239 5.87965 15.9275 5.98752C16.331 6.09539 19.3625 6.00098 19.3625 6.00098L19.7155 5.24545Z" fill="#E79F9E"/>
<path d="M19.5719 6.19777C19.5719 6.19777 18.5889 8.17153 19.8543 9.80529C21.1196 11.439 23.8596 11.3871 24.1609 11.4854C24.4621 11.5837 25.7405 10.484 25.985 9.86781C26.2296 9.25166 23.4466 5.82685 23.217 5.51308C22.9875 5.19923 21.5514 4.49913 20.7629 4.80459C19.9743 5.11005 19.5719 6.19777 19.5719 6.19777Z" fill="#CACACA"/>
<path d="M21.2137 8.84951C21.8505 9.27359 22.6014 9.26496 22.891 8.83011C23.1806 8.39528 22.8993 7.69898 22.2625 7.27489C21.6257 6.85073 20.8747 6.85945 20.5852 7.29429C20.2955 7.72905 20.5769 8.42542 21.2137 8.84951Z" fill="white"/>
<path d="M21.2265 7.61179C21.2265 7.61179 20.9793 8.60611 21.7188 8.71074C22.4582 8.81537 22.5565 8.64518 22.5565 8.64518C22.5565 8.64518 22.7243 8.0633 22.1211 7.62302C21.5179 7.18274 21.2265 7.61179 21.2265 7.61179Z" fill="black"/>
<path d="M22.121 7.62339C21.6401 7.2123 20.5677 7.50121 20.5677 7.50121L21.4987 7.6721C21.4987 7.6721 21.9199 7.71526 22.2135 8.0605C22.5072 8.40573 22.5564 8.64563 22.5564 8.64563C22.5564 8.64563 22.8176 8.21886 22.121 7.62339Z" fill="black"/>
<path d="M21.8412 8.23494C21.8246 8.32285 21.7755 8.38739 21.7315 8.37905C21.6876 8.37071 21.6653 8.29275 21.682 8.20483C21.6986 8.11692 21.7478 8.05238 21.7918 8.06072C21.8357 8.06906 21.8578 8.14703 21.8412 8.23494Z" fill="white"/>
<path d="M25.0055 9.18479C25.0055 9.18479 25.0244 9.42706 25.5469 9.87366L25.5849 10.3601C25.5974 10.5197 25.8587 10.1946 25.9419 9.97477C26.0251 9.75498 25.9652 9.47888 25.9049 9.50212C25.8446 9.52536 25.7702 9.61244 25.254 9.24659C24.7379 8.88074 25.0055 9.18479 25.0055 9.18479Z" fill="black"/>
</g>
</g>
</svg>
